<?xml version="1.0" encoding="utf-8"?>
<!-- Svg Vector Icons : http://www.onlinewebfonts.com/icon -->
<!DOCTYPE svg PUBLIC "-//W3C//DTD SVG 1.1//EN" "http://www.w3.org/Graphics/SVG/1.1/DTD/svg11.dtd">
<svg version="1.1" xmlns="http://www.w3.org/2000/svg" xmlns:xlink="http://www.w3.org/1999/xlink" x="0px" y="0px" viewBox="0 0 256 256" enable-background="new 0 0 256 256" xml:space="preserve">
<metadata> Svg Vector Icons : http://www.onlinewebfonts.com/icon </metadata>
<g><g><g><g><path fill="#000000" d="M194.7,204.4c-0.8-1.1-1.4-2.3-1.8-3.7l-3.3-12.7c-0.8-3-1.3-7.6-1.7-10.8c-0.5-4.8-1.9-9.4-4.1-13.5l-0.4-0.8H72.9l-0.4,0.7c-2.2,4.2-3.6,8.8-4.1,13.6c-0.4,3.2-0.9,7.8-1.7,10.8l-3.3,12.7c-0.4,1.3-1,2.6-1.8,3.7c-2.2,3.1-5.9,5.1-9.7,5.1h-3.1c19.4,17.3,47.9,27.5,78.5,27.5c30.6,0,59.1-10.2,78.5-27.5h-1.5C200.5,209.5,196.9,207.5,194.7,204.4z"/><path fill="#000000" d="M242.5,100.7c-9.3-5.2-14.3-7.4-24.8-11.1c-4.1-1.4-9.2-0.4-11.1,2.2c-4.1,5.6-7.4,10.4-10.2,15l17.7,38.4c8.2-15,15.2-23.6,30.6-37.1C247,106.1,246.2,102.7,242.5,100.7z M229.7,107c-2.4,2.6-7.4,3.3-11.4,1.6c-4.1-1.6-5.9-5.1-3.7-7.9c2.2-2.8,7.7-3.7,11.9-1.9C230.8,100.7,232,104.4,229.7,107z"/><path fill="#000000" d="M180,157.8c-5.3-6.6-12.4-10.5-20.1-10.5H96.4c-7.6,0-14.8,3.9-20.1,10.5c-0.6,0.8-1.3,1.7-1.9,2.6c-0.1,0.1-0.2,0.3-0.3,0.5h108c-0.1-0.1-0.2-0.3-0.3-0.5C181.2,159.5,180.6,158.6,180,157.8z"/><path fill="#000000" d="M58.4,199.4l3.3-12.7l0,0c0.7-2.7,1.3-7.3,1.6-10.1c0-0.1,0-0.2,0-0.3c0-0.4,0.1-0.7,0.2-1.1c0.2-1.3,0.4-2.6,0.7-3.9c0.1-0.5,0.3-1,0.4-1.6c0.3-1.1,0.7-2.2,1.1-3.3c0.1-0.3,0.2-0.7,0.4-1h0h-2.7H40.9h-2.4l-9.4,20.4c-0.2,0.5-0.4,1-0.6,1.5c2.5,5.1,5.5,9.9,9.2,14.4c0.7,0.9,1.4,1.7,2.1,2.6H52C54.8,204.4,57.7,202.2,58.4,199.4z"/><path fill="#000000" d="M215.4,165.5L215.4,165.5H193h-2.7h0c0.1,0.3,0.2,0.6,0.4,1c0.4,1.1,0.7,2.2,1.1,3.3c0.1,0.5,0.3,1,0.4,1.5c0.3,1.3,0.5,2.6,0.7,3.9c0,0.4,0.1,0.7,0.2,1.1c0,0.1,0,0.2,0,0.3c0.3,2.8,0.9,7.3,1.6,10.1l1.7,6.3l1.7,6.4c0.7,2.7,3.6,5,6.4,5h10.5c0.7-0.8,1.4-1.7,2.1-2.6c4.1-5,7.5-10.4,10-16.1l-9.3-20.2L215.4,165.5L215.4,165.5z"/><path fill="#000000" d="M59.7,107.1c-2.8-4.7-6.2-9.6-10.4-15.3c-1.9-2.6-7-3.7-11.1-2.2c-10.5,3.6-15.5,5.9-24.8,11.1c-3.6,2-4.5,5.4-2.1,7.5c15.5,13.6,22.5,22.3,30.8,37.4L59.7,107.1z M37.8,108.6c-4.1,1.6-9,0.9-11.4-1.6c-2.4-2.6-1.1-6.3,3.2-8.1c4.3-1.8,9.8-0.9,11.9,1.9C43.6,103.5,41.8,107,37.8,108.6z"/><path fill="#000000" d="M111.5,93.2c0.4,0.3,0.6,0.4,0.9,0.7c9.3,7.3,13.2,9.4,14.7,10c0.7-0.4,1.4-0.7,2.2-1c12.1-6.7,24.1-14.9,30.9-28.2c-10-5.3-21.1-7.9-32.2-7.9c-11.1,0-22.2,2.6-32.2,7.9c0.1,0.3,0.2,0.6,0.4,0.9C99.6,82.1,104.8,88,111.5,93.2z"/><path fill="#000000" d="M186.2,157.8c0,0,0.1,0.1,0.1,0.2c0.5,0.8,1,1.6,1.5,2.4h2.9h24.6l-1.2-2.6l-1.1-2.6l-2-4.4l-17.7-38.6l-2-4.4c-0.9-1.9-1.8-3.7-2.8-5.5c-8.2,11.3-19.7,19.8-33.4,24.2c-7.9,2.6-17.6,4-27.2,4c-2.1,0-4.1-0.1-6.1-0.2c-18.3-1.3-37.9-10.4-51.1-24c-1.1-1.2-2.1-2.3-3.1-3.6c-0.9,1.6-1.7,3.3-2.5,5l-2.2,4.7l-17.7,38.5l-1.9,4.1l-1.2,2.6l-1.2,2.6h24.6h2.9c0.5-0.9,1.1-1.7,1.6-2.6c0.6-0.9,1.2-1.8,1.8-2.6c1.5-2,3.2-3.8,5-5.4c0,0,0.1,0,0.1-0.1c1.1-0.9,2.2-1.8,3.3-2.6c0.2-0.1,0.3-0.2,0.5-0.3c1-0.7,2.1-1.3,3.2-1.8c0.4-0.2,0.7-0.3,1.1-0.5c0.9-0.4,1.9-0.8,2.8-1.1c0.7-0.2,1.4-0.3,2-0.5c0.7-0.2,1.4-0.4,2.1-0.5c1.4-0.2,2.9-0.3,4.4-0.3h63.5c1.5,0,2.9,0.1,4.4,0.3c0.7,0.1,1.4,0.3,2.1,0.5c0.7,0.2,1.4,0.3,2,0.5c1,0.3,1.9,0.7,2.8,1.1c0.4,0.2,0.7,0.3,1.1,0.5c1.1,0.5,2.1,1.2,3.2,1.8c0.2,0.1,0.4,0.2,0.5,0.3c1.2,0.8,2.3,1.6,3.3,2.6c0,0,0,0,0.1,0.1c1.8,1.6,3.4,3.4,5,5.4C185.1,156,185.7,156.9,186.2,157.8z"/><path fill="#000000" d="M60.3,44.8c-2.5,15.7-0.7,34.3,7.3,48.5c0.5,0.8,0.9,1.7,1.4,2.5c0.5,0.8,1,1.5,1.5,2.2c1.2,1.7,2.5,3.3,3.9,4.8c12.1,12.5,30.2,21.3,47.7,22.5c1.9,0.1,3.8,0.2,5.7,0.2c8.5,0,17.8-1.2,25.6-3.8c13.4-4.4,24.4-13,32.1-24.2c0.5-0.7,1.1-1.4,1.5-2.2c0.5-0.8,0.9-1.7,1.4-2.5c1.9-3.5,3.6-7.1,4.9-10.9c3.2-9.5,4.7-18.3,3.1-28.4c-1.7-10.8-2.9-21.9,4.6-28.9c1.5-1.5,3.5-2.7,5.8-3.8c0,0-2.5-1.3-7.6-1.8c-2.5,0-5.8,0-9.4,1.6c-3.6,1.4-7.8,4.3-10.4,9c-7.2,13.1-6.9,29.2-12.5,43.1c-0.1,0.3-0.2,0.6-0.4,0.9c-0.2,0.5-0.5,0.9-0.7,1.4c-0.4,0.8-0.7,1.5-1.1,2.2c-7.2,13.9-19.5,22.6-33.2,30.2c-1.3,0.5-2.3,1.1-3.4,1.6c-0.2,0.1-0.4,0.1-0.7,0.1c-4.1,0-16.6-10.1-19.1-11.9c-6.8-5.2-12.7-11.6-16.7-19.2c-0.1-0.2-0.2-0.5-0.3-0.7c-0.4-0.7-0.7-1.6-1-2.3c-0.3-0.8-0.7-1.6-1-2.4c-4.8-14-4-31.8-12.6-43c-2.6-4.7-6.9-7.6-10.4-9C62.7,19,59.5,19,57,19c-0.1,0-0.3,0-0.4,0c-2.4,0.1-4.9,0.8-7.2,1.7C59.5,26.1,62,33.7,60.3,44.8z"/></g></g><g></g><g></g><g></g><g></g><g></g><g></g><g></g><g></g><g></g><g></g><g></g><g></g><g></g><g></g><g></g></g></g>
</svg>